External Loads File
version=1
nRows=54
nColumns=13
Range=5.000000e-03-10 seconds
endheader
time 	forceRightX 	forceRightY 	forceRightZ 	pointRightX 	pointRightY 	pointRightZ 	forceLeftX 	forceLeftY 	forceLeftZ 	pointLeftX 	pointLeftY 	pointLeftZ 		
2.505000 -208.933028 550.833009 -0.000000 0.424270 0.410643 -0.124627 120.671251 -55.766855 -0.000000 0.169181 0.236681 -0.361298
2.510000 -211.293992 559.930601 -0.000000 0.426665 0.405996 -0.124607 121.181751 -57.000098 -0.000000 0.166954 0.241162 -0.361258
2.515000 -213.187865 569.471333 -0.000000 0.429030 0.401200 -0.124608 121.500887 -58.269164 -0.000000 0.164939 0.245797 -0.361356
2.520000 -214.788227 579.453081 -0.000000 0.431278 0.396304 -0.124680 121.548509 -59.605115 -0.000000 0.163018 0.250515 -0.361273
2.525000 -216.408519 589.835295 -0.000000 0.433333 0.391391 -0.124724 121.309210 -60.980406 -0.000000 0.161249 0.255286 -0.361274
2.530000 -217.075142 601.021596 -0.000000 0.435434 0.386165 -0.124733 120.679291 -62.623001 -0.000000 0.159656 0.260237 -0.361224
2.535000 -217.862819 612.611319 -0.000000 0.437329 0.380962 -0.124741 119.798929 -64.335798 -0.000000 0.158188 0.265151 -0.361225
2.540000 -218.480526 624.652521 -0.000000 0.439009 0.375829 -0.124691 118.680242 -66.178791 -0.000000 0.156887 0.270216 -0.361158
2.545000 -218.374339 637.237541 -0.000000 0.440786 0.370500 -0.124687 117.309318 -68.221718 -0.000000 0.155747 0.275294 -0.361119
2.550000 -217.833423 650.125417 -0.000000 0.442249 0.365095 -0.124674 115.768928 -70.361314 -0.000000 0.154729 0.280456 -0.361099
2.555000 -217.320675 663.007513 -0.000000 0.443739 0.359846 -0.124735 114.166804 -72.487362 -0.000000 0.153899 0.285611 -0.361098
2.560000 -215.804365 676.080309 -0.000000 0.444784 0.354289 -0.124686 112.433442 -74.770543 -0.000000 0.153240 0.290882 -0.361116
2.565000 -213.775463 689.052939 -0.000000 0.446000 0.348813 -0.124702 110.639881 -77.119769 -0.000000 0.152697 0.296253 -0.361089
2.570000 -211.759712 701.646088 -0.000000 0.447059 0.343396 -0.124944 108.849522 -79.438544 -0.000000 0.152342 0.301553 -0.361078
2.575000 -208.574893 714.109149 -0.000000 0.448087 0.337781 -0.124902 106.934563 -81.886310 -0.000000 0.152171 0.306992 -0.361082
2.580000 -204.979201 726.131588 -0.000000 0.448907 0.332175 -0.125031 104.990363 -84.319559 -0.000000 0.152145 0.312452 -0.361040
2.585000 -201.219845 737.618552 -0.000000 0.449548 0.326646 -0.125127 103.055626 -86.695516 -0.000000 0.152261 0.317894 -0.361044
2.590000 -196.156226 748.893818 -0.000000 0.450174 0.320915 -0.125243 101.009321 -89.178788 -0.000000 0.152527 0.323500 -0.360982
2.595000 -191.059069 759.648202 -0.000000 0.450488 0.315271 -0.125203 99.032160 -91.601046 -0.000000 0.152932 0.329042 -0.360932
2.600000 -185.414917 770.049013 -0.000000 0.450968 0.309588 -0.125066 97.106650 -94.031399 -0.000000 0.153551 0.334605 -0.360927
2.605000 -179.291294 780.086870 -0.000000 0.450877 0.303956 -0.125333 95.270347 -96.456247 -0.000000 0.154257 0.340191 -0.360894
2.610000 -172.835728 789.711079 -0.000000 0.450866 0.298344 -0.125459 93.539799 -98.868397 -0.000000 0.155189 0.345748 -0.360933
2.615000 -163.971211 799.307258 -0.000000 0.450788 0.291945 -0.125215 91.611542 -101.543426 -0.000000 0.156260 0.351288 -0.360986
2.620000 -156.271473 808.029194 -0.000000 0.450233 0.286317 -0.125753 89.856612 -104.118480 -0.000000 0.157458 0.356931 -0.361019
2.625000 -148.607084 816.014275 -0.000000 0.449557 0.280772 -0.125822 88.032228 -106.776190 -0.000000 0.158854 0.362498 -0.361094
2.630000 -139.705106 823.339822 -0.000000 0.447847 0.275108 -0.125403 85.861818 -109.659332 -0.000000 0.160385 0.368016 -0.361060
2.635000 -131.250865 829.553138 -0.000000 0.447819 0.269464 -0.126055 83.466517 -112.557688 -0.000000 0.162223 0.373797 -0.361149
2.640000 -123.200094 834.523703 -0.000000 0.446848 0.263949 -0.126296 80.762289 -115.422820 -0.000000 0.164119 0.379187 -0.361147
2.645000 -114.769839 838.197989 -0.000000 0.445608 0.258621 -0.126426 77.586130 -118.247637 -0.000000 0.166285 0.384642 -0.361227
2.650000 -105.981512 840.393396 -0.000000 0.444273 0.253226 -0.126501 73.918644 -120.933796 -0.000000 0.168462 0.390060 -0.361118
2.655000 -94.379627 841.227359 -0.000000 0.440906 0.247973 -0.125557 69.425124 -123.592077 -0.000000 0.170821 0.395533 -0.361009
2.660000 -84.410369 840.017272 -0.000000 0.438995 0.242726 -0.125599 64.826587 -125.741640 -0.000000 0.173350 0.400881 -0.360962
2.665000 -74.232423 836.891607 -0.000000 0.436887 0.237617 -0.125563 59.976180 -127.441187 -0.000000 0.176050 0.406141 -0.361063
2.670000 -62.360079 831.891737 -0.000000 0.433704 0.232614 -0.125135 54.794277 -128.684314 -0.000000 0.178726 0.411463 -0.361010
2.675000 -51.449461 824.731849 -0.000000 0.431287 0.227490 -0.125153 49.856778 -129.196451 -0.000000 0.181596 0.416539 -0.361016
2.680000 -41.972210 815.387443 -0.000000 0.429502 0.222626 -0.125605 45.400010 -128.929718 -0.000000 0.184581 0.421571 -0.361116
2.685000 -30.851459 804.021933 -0.000000 0.426721 0.217886 -0.125636 41.041235 -128.096178 -0.000000 0.187709 0.426658 -0.361044
2.690000 -19.991768 790.534238 -0.000000 0.423813 0.213119 -0.125657 37.103010 -126.679854 -0.000000 0.190888 0.431523 -0.361065
2.695000 -8.919019 774.943474 -0.000000 0.420726 0.208688 -0.125653 33.458593 -124.821843 -0.000000 0.194724 0.436221 -0.362089
2.700000 0.871998 757.221914 -0.000000 0.417489 0.204223 -0.125637 30.251471 -122.567147 -0.000000 0.197897 0.440892 -0.361575
2.705000 10.509773 737.356180 -0.000000 0.414201 0.199762 -0.125640 27.179214 -120.049528 -0.000000 0.201365 0.445441 -0.361436
2.710000 19.289527 715.316348 -0.000000 0.410997 0.195692 -0.125666 24.238703 -117.298671 -0.000000 0.205306 0.449769 -0.361258
2.715000 27.576624 691.119398 -0.000000 0.407525 0.191606 -0.125682 21.276493 -114.368331 -0.000000 0.209102 0.454106 -0.361478
2.720000 34.600888 664.944525 -0.000000 0.404017 0.187650 -0.125706 18.336601 -111.240704 -0.000000 0.213024 0.458053 -0.361682
2.725000 40.658425 637.058221 -0.000000 0.400402 0.183986 -0.125685 15.283536 -107.851610 -0.000000 0.217106 0.461903 -0.361773
2.730000 46.252019 607.753801 -0.000000 0.396459 0.180365 -0.125920 11.944959 -104.043055 -0.000000 0.221291 0.465689 -0.361965
2.735000 50.465914 577.440541 -0.000000 0.392554 0.176821 -0.125910 8.399671 -99.560958 -0.000000 0.225461 0.469284 -0.361862
2.740000 53.600720 546.471120 -0.000000 0.388542 0.173641 -0.125858 4.543462 -94.149045 -0.000000 0.229789 0.472607 -0.361925
2.745000 56.241567 515.190103 -0.000000 0.384423 0.170359 -0.125719 0.267689 -87.548382 -0.000000 0.234234 0.475827 -0.362064
2.750000 59.263883 483.905619 -0.000000 0.379417 0.167212 -0.125096 -4.512975 -79.517287 -0.000000 0.238730 0.478914 -0.362150
2.755000 60.784467 453.262915 -0.000000 0.375074 0.164526 -0.124810 -9.358175 -69.906422 -0.000000 0.243505 0.481510 -0.362574
2.760000 62.349844 423.505786 -0.000000 0.370615 0.161901 -0.124645 -14.354969 -58.652438 -0.000000 0.248366 0.484155 -0.362911
2.765000 63.722686 395.073905 -0.000000 0.365887 0.159506 -0.124576 -19.288569 -45.817161 -0.000000 0.253036 0.486520 -0.363082
2.770000 65.017999 368.297008 -0.000000 0.361134 0.157236 -0.124406 -24.021038 -31.549436 -0.000000 0.257695 0.488645 -0.363266
